<svg id="svg" version="1.1" xmlns="http://www.w3.org/2000/svg" xmlns:xlink="http://www.w3.org/1999/xlink" width="400" height="400" viewBox="0, 0, 400,400"><g id="svgg"><path id="path0" d="M190.829 8.308 C 187.214 8.370,184.064 8.573,183.829 8.759 C 183.593 8.945,180.972 9.224,178.004 9.380 C 175.036 9.536,172.516 9.807,172.404 9.984 C 172.292 10.160,170.535 10.435,168.500 10.595 C 166.465 10.754,164.800 11.046,164.800 11.242 C 164.800 11.439,164.125 11.604,163.300 11.610 C 162.475 11.615,161.080 11.812,160.200 12.047 C 159.320 12.282,158.015 12.567,157.300 12.681 C 156.585 12.795,156.000 13.022,156.000 13.187 C 156.000 13.351,154.885 13.603,153.522 13.745 C 152.160 13.887,150.945 14.161,150.822 14.354 C 150.700 14.546,149.655 14.832,148.500 14.989 C 147.346 15.146,146.313 15.417,146.205 15.591 C 146.098 15.765,145.202 16.029,144.214 16.177 C 143.227 16.325,142.314 16.616,142.186 16.823 C 142.058 17.030,141.524 17.200,141.000 17.200 C 140.476 17.200,139.946 17.364,139.822 17.565 C 139.697 17.766,138.877 18.052,137.998 18.200 C 137.119 18.349,136.400 18.623,136.400 18.811 C 136.400 18.998,135.590 19.272,134.600 19.421 C 133.610 19.569,132.800 19.835,132.800 20.010 C 132.800 20.186,132.080 20.451,131.200 20.600 C 130.320 20.749,129.600 21.034,129.600 21.235 C 129.600 21.436,129.311 21.600,128.957 21.600 C 128.604 21.600,127.119 22.153,125.657 22.828 C 122.721 24.185,122.216 24.409,119.600 25.521 C 118.610 25.942,117.215 26.536,116.500 26.841 C 115.785 27.146,115.200 27.517,115.200 27.666 C 115.200 27.815,114.660 28.055,114.000 28.200 C 113.340 28.345,112.800 28.615,112.800 28.800 C 112.800 28.985,112.260 29.255,111.600 29.400 C 110.940 29.545,110.400 29.790,110.400 29.944 C 110.400 30.098,109.905 30.431,109.300 30.683 C 108.027 31.214,105.094 32.885,104.800 33.246 C 104.690 33.381,104.195 33.619,103.700 33.773 C 103.205 33.928,102.800 34.207,102.800 34.395 C 102.800 34.583,102.260 34.855,101.600 35.000 C 100.940 35.145,100.400 35.388,100.400 35.541 C 100.400 35.693,99.725 36.172,98.900 36.605 C 98.075 37.038,97.310 37.484,97.200 37.596 C 96.645 38.162,94.384 39.600,94.050 39.600 C 93.839 39.600,93.607 39.738,93.533 39.907 C 93.460 40.076,92.455 40.815,91.300 41.549 C 90.145 42.283,89.200 43.041,89.200 43.234 C 89.200 43.427,88.750 43.698,88.200 43.836 C 87.650 43.974,87.195 44.202,87.189 44.343 C 87.183 44.485,86.463 45.041,85.589 45.580 C 84.715 46.120,84.000 46.705,84.000 46.880 C 84.000 47.056,83.826 47.200,83.614 47.200 C 83.401 47.200,82.675 47.740,82.000 48.400 C 81.325 49.060,80.635 49.600,80.467 49.600 C 80.299 49.600,79.412 50.320,78.496 51.200 C 77.580 52.080,76.713 52.800,76.569 52.800 C 76.424 52.800,75.608 53.520,74.754 54.400 C 73.900 55.280,73.103 56.000,72.984 56.000 C 72.436 56.000,56.000 72.286,56.000 72.828 C 56.000 73.007,55.235 73.951,54.300 74.926 C 52.353 76.957,49.964 79.800,49.449 80.699 C 49.107 81.296,48.550 81.977,46.304 84.546 C 45.701 85.236,45.104 86.115,44.977 86.500 C 44.850 86.885,44.598 87.200,44.416 87.200 C 44.235 87.200,43.974 87.650,43.836 88.200 C 43.698 88.750,43.427 89.200,43.234 89.200 C 43.041 89.200,42.283 90.145,41.549 91.300 C 40.815 92.455,40.076 93.460,39.907 93.533 C 39.738 93.607,39.600 93.815,39.600 93.996 C 39.600 94.328,36.396 99.400,35.640 100.266 C 35.416 100.522,35.116 101.197,34.973 101.766 C 34.830 102.335,34.565 102.800,34.384 102.800 C 34.202 102.800,33.928 103.205,33.773 103.700 C 33.619 104.195,33.381 104.690,33.246 104.800 C 32.885 105.094,31.214 108.027,30.683 109.300 C 30.431 109.905,30.098 110.400,29.944 110.400 C 29.790 110.400,29.545 110.940,29.400 111.600 C 29.255 112.260,28.985 112.800,28.800 112.800 C 28.615 112.800,28.345 113.340,28.200 114.000 C 28.055 114.660,27.815 115.200,27.666 115.200 C 27.517 115.200,27.146 115.785,26.841 116.500 C 26.536 117.215,25.942 118.610,25.521 119.600 C 24.409 122.216,24.185 122.721,22.828 125.657 C 22.153 127.119,21.600 128.604,21.600 128.957 C 21.600 129.311,21.436 129.600,21.235 129.600 C 21.034 129.600,20.749 130.320,20.600 131.200 C 20.451 132.080,20.186 132.800,20.010 132.800 C 19.835 132.800,19.569 133.610,19.421 134.600 C 19.272 135.590,18.998 136.400,18.811 136.400 C 18.623 136.400,18.342 137.158,18.186 138.085 C 17.905 139.745,17.769 140.139,16.870 141.883 C 16.620 142.368,16.299 143.493,16.156 144.383 C 16.014 145.272,15.761 146.000,15.595 146.000 C 15.428 146.000,15.169 146.987,15.018 148.194 C 14.867 149.400,14.589 150.483,14.400 150.600 C 14.211 150.717,13.931 151.845,13.779 153.106 C 13.626 154.368,13.366 155.580,13.201 155.800 C 12.872 156.237,12.591 157.535,11.900 161.800 C 11.651 163.340,11.320 164.690,11.166 164.800 C 11.012 164.910,10.753 166.620,10.591 168.600 C 10.429 170.580,10.154 172.292,9.980 172.404 C 9.805 172.516,9.533 175.036,9.375 178.004 C 9.216 180.972,8.907 183.516,8.688 183.658 C 8.149 184.006,8.151 215.994,8.691 216.345 C 8.906 216.485,9.210 218.935,9.366 221.788 C 9.521 224.642,9.796 227.162,9.977 227.388 C 10.157 227.615,10.436 229.420,10.595 231.400 C 10.755 233.380,11.012 235.090,11.166 235.200 C 11.320 235.310,11.665 236.750,11.933 238.400 C 12.751 243.443,12.876 244.000,13.197 244.000 C 13.367 244.000,13.632 245.170,13.785 246.600 C 13.938 248.030,14.209 249.200,14.386 249.200 C 14.563 249.200,14.831 250.187,14.982 251.394 C 15.133 252.600,15.403 253.678,15.582 253.789 C 15.761 253.900,16.029 254.798,16.177 255.786 C 16.325 256.773,16.616 257.686,16.823 257.814 C 17.030 257.942,17.200 258.397,17.200 258.824 C 17.200 259.251,17.357 259.600,17.548 259.600 C 17.740 259.600,18.016 260.500,18.162 261.600 C 18.308 262.700,18.590 263.600,18.789 263.600 C 18.988 263.600,19.272 264.410,19.421 265.400 C 19.569 266.390,19.835 267.200,20.010 267.200 C 20.186 267.200,20.451 267.920,20.600 268.800 C 20.749 269.680,21.034 270.400,21.235 270.400 C 21.436 270.400,21.600 270.657,21.600 270.972 C 21.600 271.287,22.151 272.772,22.825 274.272 C 24.396 277.769,24.600 278.232,25.521 280.400 C 25.942 281.390,26.536 282.785,26.841 283.500 C 27.146 284.215,27.517 284.800,27.666 284.800 C 27.815 284.800,28.055 285.340,28.200 286.000 C 28.345 286.660,28.615 287.200,28.800 287.200 C 28.985 287.200,29.255 287.740,29.400 288.400 C 29.545 289.060,29.829 289.600,30.032 289.600 C 30.234 289.600,30.400 289.857,30.400 290.171 C 30.400 290.486,30.626 290.981,30.903 291.271 C 31.179 291.562,31.764 292.563,32.203 293.495 C 32.641 294.428,33.135 295.193,33.300 295.195 C 33.465 295.198,33.600 295.457,33.600 295.771 C 33.600 296.086,33.846 296.589,34.147 296.890 C 34.448 297.191,34.830 297.865,34.996 298.388 C 35.162 298.911,35.453 299.532,35.643 299.769 C 37.066 301.545,37.899 302.742,38.313 303.600 C 38.861 304.739,39.694 306.104,40.021 306.400 C 40.143 306.510,40.631 307.230,41.105 308.000 C 41.580 308.770,42.426 309.923,42.984 310.562 C 43.543 311.201,44.000 311.966,44.000 312.262 C 44.000 312.558,44.144 312.800,44.320 312.800 C 44.495 312.800,45.080 313.516,45.620 314.392 C 46.159 315.268,46.915 316.090,47.300 316.219 C 47.685 316.348,48.000 316.687,48.000 316.973 C 48.000 317.258,48.537 318.101,49.194 318.846 C 49.850 319.591,50.390 320.321,50.394 320.469 C 50.397 320.617,50.940 321.278,51.600 321.938 C 52.260 322.598,52.800 323.263,52.800 323.416 C 52.800 323.569,53.475 324.354,54.300 325.161 C 55.125 325.968,56.311 327.306,56.935 328.133 C 58.408 330.087,69.913 341.592,71.867 343.065 C 72.694 343.689,74.032 344.875,74.839 345.700 C 75.646 346.525,76.431 347.200,76.584 347.200 C 76.737 347.200,77.402 347.740,78.062 348.400 C 78.722 349.060,79.383 349.603,79.531 349.606 C 79.679 349.610,80.409 350.150,81.154 350.806 C 81.899 351.463,82.742 352.000,83.027 352.000 C 83.313 352.000,83.652 352.315,83.781 352.700 C 83.910 353.085,84.732 353.841,85.608 354.380 C 86.484 354.920,87.200 355.505,87.200 355.680 C 87.200 355.856,87.446 356.000,87.746 356.000 C 88.046 356.000,88.901 356.534,89.646 357.187 C 90.391 357.840,91.585 358.691,92.300 359.078 C 93.015 359.465,93.600 359.921,93.600 360.091 C 93.600 360.261,93.797 360.400,94.037 360.400 C 94.277 360.400,94.931 360.760,95.491 361.200 C 96.050 361.640,96.745 362.000,97.036 362.000 C 97.326 362.000,98.005 362.405,98.544 362.900 C 100.132 364.358,100.609 364.685,101.612 365.004 C 102.135 365.170,102.809 365.552,103.110 365.853 C 103.411 366.154,103.914 366.400,104.229 366.400 C 104.543 366.400,104.800 366.540,104.800 366.710 C 104.800 366.881,105.608 367.376,106.596 367.810 C 107.584 368.245,108.394 368.701,108.396 368.824 C 108.398 368.947,109.388 369.487,110.596 370.024 C 111.804 370.561,112.794 371.121,112.796 371.268 C 112.798 371.416,113.340 371.655,114.000 371.800 C 114.660 371.945,115.200 372.185,115.200 372.334 C 115.200 372.483,115.785 372.854,116.500 373.159 C 117.215 373.464,118.555 374.048,119.478 374.457 C 120.401 374.866,121.436 375.200,121.778 375.200 C 122.120 375.200,122.400 375.380,122.400 375.600 C 122.400 375.820,122.596 376.000,122.835 376.000 C 123.075 376.000,124.437 376.540,125.863 377.200 C 127.289 377.860,128.703 378.400,129.004 378.400 C 129.306 378.400,129.651 378.560,129.772 378.755 C 129.893 378.950,130.623 379.228,131.396 379.373 C 132.168 379.518,132.800 379.788,132.800 379.973 C 132.800 380.158,133.610 380.431,134.600 380.579 C 135.590 380.728,136.400 381.001,136.400 381.187 C 136.400 381.373,137.300 381.649,138.400 381.800 C 139.500 381.951,140.400 382.238,140.400 382.438 C 140.400 382.637,140.749 382.800,141.176 382.800 C 141.603 382.800,142.058 382.970,142.186 383.177 C 142.314 383.384,143.227 383.675,144.214 383.823 C 145.202 383.971,146.100 384.239,146.211 384.418 C 146.322 384.597,147.400 384.867,148.606 385.018 C 149.813 385.169,150.800 385.430,150.800 385.599 C 150.800 385.769,151.970 386.032,153.400 386.185 C 154.830 386.338,156.000 386.610,156.000 386.788 C 156.000 387.123,156.535 387.246,161.600 388.067 C 163.250 388.335,164.690 388.680,164.800 388.834 C 164.910 388.988,166.620 389.247,168.600 389.409 C 170.580 389.571,172.292 389.846,172.404 390.020 C 172.516 390.195,175.036 390.464,178.004 390.620 C 180.972 390.776,183.619 391.076,183.886 391.289 C 184.179 391.521,190.573 391.674,200.000 391.674 C 209.427 391.674,215.821 391.521,216.114 391.289 C 216.381 391.076,219.028 390.776,221.996 390.620 C 224.964 390.464,227.484 390.195,227.596 390.020 C 227.708 389.846,229.420 389.571,231.400 389.409 C 233.380 389.247,235.090 388.988,235.200 388.834 C 235.310 388.680,236.750 388.335,238.400 388.067 C 243.465 387.246,244.000 387.123,244.000 386.788 C 244.000 386.610,245.170 386.338,246.600 386.185 C 248.030 386.032,249.200 385.769,249.200 385.599 C 249.200 385.430,250.187 385.169,251.394 385.018 C 252.600 384.867,253.678 384.597,253.789 384.418 C 253.900 384.239,254.798 383.971,255.786 383.823 C 256.773 383.675,257.686 383.384,257.814 383.177 C 257.942 382.970,258.397 382.800,258.824 382.800 C 259.251 382.800,259.600 382.637,259.600 382.438 C 259.600 382.238,260.500 381.951,261.600 381.800 C 262.700 381.649,263.600 381.373,263.600 381.187 C 263.600 381.001,264.410 380.728,265.400 380.579 C 266.390 380.431,267.200 380.158,267.200 379.973 C 267.200 379.788,267.832 379.518,268.604 379.373 C 269.377 379.228,270.107 378.950,270.228 378.755 C 270.349 378.560,270.726 378.400,271.066 378.400 C 271.407 378.400,272.881 377.847,274.343 377.172 C 277.279 375.815,277.784 375.591,280.400 374.479 C 281.390 374.058,282.785 373.464,283.500 373.159 C 284.215 372.854,284.800 372.488,284.800 372.346 C 284.800 372.203,285.293 371.963,285.896 371.812 C 286.499 371.660,287.084 371.416,287.196 371.268 C 287.308 371.121,288.300 370.550,289.400 370.000 C 290.500 369.450,291.490 368.907,291.600 368.794 C 291.710 368.681,292.563 368.231,293.495 367.794 C 294.428 367.357,295.193 366.865,295.195 366.700 C 295.198 366.535,295.457 366.400,295.771 366.400 C 296.086 366.400,296.584 366.175,296.879 365.900 C 297.173 365.625,298.288 364.950,299.356 364.400 C 300.423 363.850,301.498 363.085,301.745 362.700 C 301.991 362.315,302.485 362.000,302.842 362.000 C 303.200 362.000,303.950 361.640,304.509 361.200 C 305.069 360.760,305.723 360.400,305.963 360.400 C 306.203 360.400,306.400 360.261,306.400 360.091 C 306.400 359.921,306.985 359.465,307.700 359.078 C 308.415 358.691,309.609 357.840,310.354 357.187 C 311.099 356.534,311.954 356.000,312.254 356.000 C 312.554 356.000,312.800 355.856,312.800 355.680 C 312.800 355.505,313.516 354.920,314.392 354.380 C 315.268 353.841,316.090 353.085,316.219 352.700 C 316.348 352.315,316.687 352.000,316.973 352.000 C 317.258 352.000,318.101 351.463,318.846 350.806 C 319.591 350.150,320.321 349.610,320.469 349.606 C 320.617 349.603,321.278 349.060,321.938 348.400 C 322.598 347.740,323.263 347.200,323.416 347.200 C 323.569 347.200,324.354 346.525,325.161 345.700 C 325.968 344.875,327.295 343.697,328.110 343.083 C 330.081 341.597,341.028 330.654,342.800 328.398 C 343.570 327.418,344.875 325.959,345.700 325.155 C 346.525 324.351,347.200 323.569,347.200 323.416 C 347.200 323.263,347.740 322.598,348.400 321.938 C 349.060 321.278,349.603 320.617,349.606 320.469 C 349.610 320.321,350.150 319.591,350.806 318.846 C 351.463 318.101,352.000 317.258,352.000 316.973 C 352.000 316.687,352.351 316.343,352.780 316.206 C 353.208 316.070,353.679 315.580,353.826 315.117 C 353.973 314.654,354.523 313.878,355.047 313.392 C 355.571 312.906,356.000 312.331,356.000 312.115 C 356.000 311.899,356.380 311.290,356.844 310.761 C 358.238 309.173,362.000 303.317,362.000 302.735 C 362.000 302.436,362.315 301.991,362.700 301.745 C 363.085 301.498,363.850 300.423,364.400 299.356 C 364.950 298.288,365.625 297.173,365.900 296.879 C 366.175 296.584,366.400 296.086,366.400 295.771 C 366.400 295.457,366.535 295.198,366.700 295.195 C 366.865 295.193,367.357 294.428,367.794 293.495 C 368.231 292.563,368.695 291.710,368.826 291.600 C 368.957 291.490,369.500 290.500,370.032 289.400 C 370.564 288.300,371.110 287.310,371.246 287.200 C 371.381 287.090,371.631 286.550,371.800 286.000 C 371.969 285.450,372.228 284.910,372.375 284.800 C 372.814 284.471,374.000 281.727,374.000 281.040 C 374.000 280.688,374.180 280.400,374.400 280.400 C 374.620 280.400,374.806 280.175,374.814 279.900 C 374.821 279.625,375.175 278.680,375.600 277.800 C 376.025 276.920,376.379 275.885,376.386 275.500 C 376.394 275.115,376.538 274.800,376.706 274.800 C 377.077 274.800,378.400 271.831,378.400 270.997 C 378.400 270.669,378.557 270.400,378.749 270.400 C 378.941 270.400,379.213 269.680,379.354 268.800 C 379.494 267.920,379.767 267.200,379.959 267.200 C 380.152 267.200,380.431 266.390,380.579 265.400 C 380.728 264.410,381.001 263.600,381.187 263.600 C 381.373 263.600,381.649 262.700,381.800 261.600 C 381.951 260.500,382.238 259.600,382.438 259.600 C 382.637 259.600,382.800 259.251,382.800 258.824 C 382.800 258.397,382.970 257.942,383.177 257.814 C 383.384 257.686,383.675 256.773,383.823 255.786 C 383.971 254.798,384.239 253.900,384.418 253.789 C 384.597 253.678,384.867 252.600,385.018 251.394 C 385.169 250.187,385.437 249.200,385.614 249.200 C 385.791 249.200,386.062 248.030,386.215 246.600 C 386.368 245.170,386.633 244.000,386.803 244.000 C 387.124 244.000,387.249 243.443,388.067 238.400 C 388.335 236.750,388.680 235.310,388.834 235.200 C 388.988 235.090,389.245 233.380,389.405 231.400 C 389.564 229.420,389.843 227.615,390.023 227.388 C 390.204 227.162,390.476 224.642,390.629 221.788 C 390.781 218.935,391.086 216.373,391.306 216.095 C 391.844 215.416,391.846 184.004,391.308 183.654 C 391.093 183.514,390.790 181.065,390.634 178.212 C 390.479 175.358,390.204 172.838,390.023 172.612 C 389.843 172.385,389.564 170.580,389.405 168.600 C 389.245 166.620,388.988 164.910,388.834 164.800 C 388.680 164.690,388.349 163.340,388.100 161.800 C 387.403 157.498,387.127 156.235,386.788 155.800 C 386.617 155.580,386.349 154.365,386.192 153.100 C 386.036 151.835,385.772 150.800,385.605 150.800 C 385.439 150.800,385.178 149.859,385.026 148.710 C 384.873 147.560,384.604 146.435,384.426 146.210 C 384.249 145.984,383.979 145.103,383.825 144.251 C 383.671 143.399,383.378 142.364,383.173 141.951 C 382.968 141.538,382.623 140.848,382.408 140.417 C 382.192 139.987,381.899 138.907,381.756 138.017 C 381.614 137.128,381.352 136.400,381.173 136.400 C 380.995 136.400,380.728 135.590,380.579 134.600 C 380.431 133.610,380.165 132.800,379.990 132.800 C 379.814 132.800,379.549 132.080,379.400 131.200 C 379.251 130.320,378.966 129.600,378.765 129.600 C 378.564 129.600,378.400 129.311,378.400 128.957 C 378.400 128.604,377.847 127.119,377.172 125.657 C 375.815 122.721,375.591 122.216,374.479 119.600 C 374.058 118.610,373.464 117.215,373.159 116.500 C 372.854 115.785,372.483 115.200,372.334 115.200 C 372.185 115.200,371.945 114.660,371.800 114.000 C 371.655 113.340,371.385 112.800,371.200 112.800 C 371.015 112.800,370.745 112.260,370.600 111.600 C 370.455 110.940,370.216 110.396,370.068 110.392 C 369.921 110.387,369.350 109.401,368.800 108.200 C 368.250 106.999,367.665 106.013,367.500 106.008 C 367.335 106.004,367.200 105.730,367.200 105.400 C 367.200 105.070,367.020 104.800,366.800 104.800 C 366.580 104.800,366.400 104.543,366.400 104.229 C 366.400 103.914,366.175 103.411,365.900 103.109 C 365.625 102.808,364.967 101.760,364.438 100.781 C 363.909 99.801,362.784 97.952,361.938 96.672 C 361.092 95.391,360.400 94.191,360.400 94.005 C 360.400 93.819,360.262 93.607,360.093 93.533 C 359.924 93.460,359.185 92.455,358.451 91.300 C 357.717 90.145,356.959 89.200,356.766 89.200 C 356.573 89.200,356.302 88.750,356.164 88.200 C 356.026 87.650,355.798 87.199,355.657 87.197 C 355.515 87.196,354.950 86.523,354.400 85.703 C 353.446 84.279,352.295 82.812,351.374 81.847 C 351.140 81.601,350.780 81.104,350.574 80.743 C 350.042 79.809,347.691 77.003,345.700 74.926 C 344.765 73.951,344.000 73.007,344.000 72.828 C 344.000 72.392,328.484 56.800,328.050 56.800 C 327.862 56.800,326.794 55.900,325.677 54.800 C 324.559 53.700,323.531 52.800,323.392 52.800 C 323.252 52.800,322.584 52.246,321.907 51.568 C 321.229 50.891,320.208 50.036,319.638 49.668 C 318.602 49.001,317.816 48.369,315.454 46.304 C 314.764 45.701,313.885 45.104,313.500 44.977 C 313.115 44.850,312.800 44.598,312.800 44.416 C 312.800 44.235,312.350 43.974,311.800 43.836 C 311.250 43.698,310.800 43.427,310.800 43.234 C 310.800 43.041,309.855 42.283,308.700 41.549 C 307.545 40.815,306.540 40.076,306.467 39.907 C 306.393 39.738,306.161 39.600,305.950 39.600 C 305.619 39.600,303.376 38.176,302.800 37.600 C 302.598 37.398,301.355 36.692,298.818 35.338 C 298.058 34.932,297.190 34.375,296.890 34.100 C 296.589 33.825,296.086 33.600,295.771 33.600 C 295.457 33.600,295.199 33.465,295.197 33.300 C 295.195 33.135,294.790 32.810,294.297 32.577 C 292.625 31.790,289.803 30.201,289.597 29.932 C 289.484 29.784,288.899 29.540,288.296 29.388 C 287.693 29.237,287.200 28.967,287.200 28.788 C 287.200 28.610,286.660 28.345,286.000 28.200 C 285.340 28.055,284.800 27.815,284.800 27.666 C 284.800 27.517,284.215 27.146,283.500 26.841 C 282.785 26.536,281.390 25.942,280.400 25.521 C 277.784 24.409,277.279 24.185,274.343 22.828 C 272.881 22.153,271.396 21.600,271.043 21.600 C 270.689 21.600,270.400 21.436,270.400 21.235 C 270.400 21.034,269.680 20.749,268.800 20.600 C 267.920 20.451,267.200 20.186,267.200 20.010 C 267.200 19.835,266.390 19.569,265.400 19.421 C 264.410 19.272,263.600 18.998,263.600 18.811 C 263.600 18.623,262.881 18.349,262.002 18.200 C 261.123 18.052,260.303 17.766,260.178 17.565 C 260.054 17.364,259.524 17.200,259.000 17.200 C 258.476 17.200,257.942 17.030,257.814 16.823 C 257.686 16.616,256.773 16.325,255.786 16.177 C 254.798 16.029,253.902 15.765,253.795 15.591 C 253.687 15.417,252.654 15.146,251.500 14.989 C 250.345 14.832,249.300 14.546,249.178 14.354 C 249.055 14.161,247.840 13.887,246.478 13.745 C 245.115 13.603,244.000 13.351,244.000 13.187 C 244.000 13.022,243.415 12.795,242.700 12.681 C 241.985 12.567,240.680 12.282,239.800 12.047 C 238.920 11.812,237.525 11.615,236.700 11.610 C 235.875 11.604,235.200 11.439,235.200 11.242 C 235.200 11.046,233.535 10.754,231.500 10.595 C 229.465 10.435,227.708 10.160,227.596 9.984 C 227.484 9.807,224.964 9.536,221.996 9.380 C 219.028 9.224,216.420 8.965,216.200 8.803 C 215.724 8.453,200.117 8.148,190.829 8.308 M218.900 26.711 C 219.175 26.937,220.390 27.220,221.600 27.341 C 225.745 27.754,231.400 28.600,231.808 28.867 C 232.032 29.013,233.517 29.262,235.108 29.418 C 236.699 29.575,238.000 29.842,238.000 30.012 C 238.000 30.182,239.080 30.447,240.400 30.600 C 241.720 30.753,242.800 31.027,242.800 31.207 C 242.800 31.388,243.970 31.662,245.400 31.815 C 246.830 31.968,248.000 32.252,248.000 32.447 C 248.000 32.641,248.349 32.800,248.776 32.800 C 249.203 32.800,249.658 32.970,249.786 33.177 C 249.914 33.384,250.824 33.675,251.809 33.822 C 252.794 33.970,253.600 34.239,253.600 34.421 C 253.600 34.602,254.410 34.872,255.400 35.021 C 256.390 35.169,257.200 35.430,257.200 35.600 C 257.200 35.770,258.010 36.031,259.000 36.179 C 259.990 36.328,260.800 36.618,260.800 36.825 C 260.800 37.031,261.049 37.200,261.354 37.200 C 261.659 37.200,262.424 37.469,263.054 37.798 C 263.684 38.126,264.504 38.396,264.876 38.398 C 265.248 38.399,265.655 38.566,265.781 38.769 C 265.906 38.972,266.547 39.257,267.205 39.401 C 267.862 39.545,268.400 39.813,268.400 39.997 C 268.400 40.180,269.120 40.451,270.000 40.600 C 270.880 40.749,271.600 41.020,271.600 41.203 C 271.600 41.387,272.140 41.655,272.800 41.800 C 273.460 41.945,274.000 42.187,274.000 42.337 C 274.000 42.635,276.957 44.000,277.603 44.000 C 277.821 44.000,278.000 44.166,278.000 44.368 C 278.000 44.571,278.540 44.855,279.200 45.000 C 279.860 45.145,280.400 45.415,280.400 45.600 C 280.400 45.785,280.940 46.055,281.600 46.200 C 282.260 46.345,282.802 46.584,282.805 46.732 C 282.807 46.879,283.527 47.344,284.405 47.764 C 285.282 48.185,286.000 48.665,286.000 48.833 C 286.000 49.000,286.540 49.255,287.200 49.400 C 287.860 49.545,288.400 49.826,288.400 50.024 C 288.400 50.222,288.850 50.498,289.400 50.636 C 289.950 50.774,290.400 51.028,290.400 51.200 C 290.400 51.372,290.850 51.626,291.400 51.764 C 291.950 51.902,292.400 52.192,292.400 52.408 C 292.400 52.623,292.588 52.800,292.817 52.800 C 293.046 52.800,293.451 52.983,293.717 53.207 C 295.645 54.834,296.187 55.200,296.661 55.200 C 296.958 55.200,297.200 55.368,297.200 55.573 C 297.200 55.778,297.566 56.062,298.013 56.204 C 298.460 56.346,299.244 56.853,299.755 57.331 C 301.084 58.573,302.507 59.600,302.900 59.600 C 303.086 59.600,303.655 60.050,304.165 60.600 C 304.675 61.150,305.287 61.600,305.526 61.600 C 305.765 61.600,306.104 61.829,306.280 62.110 C 306.456 62.390,307.086 62.928,307.679 63.305 C 308.760 63.992,309.321 64.472,312.950 67.807 C 314.023 68.793,315.050 69.600,315.233 69.600 C 315.652 69.600,330.400 84.330,330.400 84.749 C 330.400 84.918,331.211 85.944,332.203 87.028 C 335.208 90.314,335.769 90.981,336.563 92.215 C 336.983 92.867,337.568 93.544,337.863 93.720 C 338.158 93.896,338.400 94.235,338.400 94.474 C 338.400 94.713,338.850 95.325,339.400 95.835 C 339.950 96.345,340.400 96.911,340.400 97.094 C 340.400 97.443,341.737 99.256,342.861 100.430 C 343.224 100.810,343.641 101.499,343.787 101.961 C 343.934 102.422,344.202 102.800,344.384 102.800 C 344.565 102.800,344.826 103.250,344.964 103.800 C 345.102 104.350,345.392 104.800,345.608 104.800 C 345.823 104.800,346.000 105.061,346.000 105.380 C 346.000 105.699,346.225 106.104,346.500 106.280 C 347.085 106.655,347.924 107.904,348.258 108.900 C 348.388 109.285,348.652 109.600,348.847 109.600 C 349.041 109.600,349.200 109.857,349.200 110.171 C 349.200 110.486,349.446 110.989,349.747 111.290 C 350.048 111.591,350.432 112.279,350.601 112.819 C 350.770 113.358,351.019 113.890,351.154 114.000 C 351.549 114.321,352.403 115.740,352.658 116.500 C 352.788 116.885,353.038 117.200,353.215 117.200 C 353.392 117.200,353.655 117.740,353.800 118.400 C 353.945 119.060,354.215 119.600,354.400 119.600 C 354.585 119.600,354.855 120.140,355.000 120.800 C 355.145 121.460,355.429 122.000,355.632 122.000 C 355.834 122.000,356.000 122.179,356.000 122.397 C 356.000 123.043,357.365 126.000,357.663 126.000 C 357.813 126.000,358.055 126.540,358.200 127.200 C 358.345 127.860,358.606 128.400,358.781 128.400 C 358.955 128.400,359.213 129.120,359.354 130.000 C 359.494 130.880,359.773 131.600,359.973 131.600 C 360.173 131.600,360.464 132.179,360.619 132.887 C 360.775 133.595,361.047 134.450,361.225 134.787 C 362.085 136.417,362.800 138.176,362.800 138.661 C 362.800 138.958,362.969 139.200,363.175 139.200 C 363.382 139.200,363.672 140.010,363.821 141.000 C 363.969 141.990,364.230 142.800,364.400 142.800 C 364.570 142.800,364.831 143.610,364.979 144.600 C 365.128 145.590,365.398 146.400,365.579 146.400 C 365.761 146.400,366.030 147.206,366.178 148.191 C 366.325 149.176,366.616 150.086,366.823 150.214 C 367.030 150.342,367.200 150.876,367.200 151.400 C 367.200 151.924,367.367 152.456,367.572 152.583 C 367.777 152.709,368.067 153.800,368.218 155.006 C 368.369 156.213,368.634 157.200,368.807 157.200 C 368.980 157.200,369.247 158.280,369.400 159.601 C 369.553 160.921,369.823 162.090,369.999 162.199 C 370.175 162.308,370.448 163.703,370.607 165.298 C 370.766 166.894,371.027 168.290,371.187 168.400 C 371.471 168.595,372.224 173.812,372.658 178.600 C 372.778 179.920,373.084 181.253,373.338 181.561 C 373.997 182.362,373.997 217.907,373.338 218.315 C 373.085 218.472,372.780 219.770,372.661 221.200 C 372.294 225.616,371.492 231.390,371.216 231.600 C 371.072 231.710,370.748 233.060,370.496 234.600 C 369.511 240.628,369.056 242.800,368.780 242.800 C 368.622 242.800,368.369 243.787,368.218 244.994 C 368.067 246.200,367.777 247.291,367.572 247.417 C 367.367 247.544,367.200 248.076,367.200 248.600 C 367.200 249.124,367.030 249.658,366.823 249.786 C 366.616 249.914,366.325 250.824,366.178 251.809 C 366.030 252.794,365.761 253.600,365.579 253.600 C 365.398 253.600,365.128 254.410,364.979 255.400 C 364.831 256.390,364.570 257.200,364.400 257.200 C 364.230 257.200,363.969 258.010,363.821 259.000 C 363.672 259.990,363.382 260.800,363.175 260.800 C 362.969 260.800,362.800 261.072,362.800 261.405 C 362.800 261.738,362.632 262.323,362.426 262.705 C 361.568 264.298,360.849 266.066,360.601 267.196 C 360.455 267.858,360.185 268.400,360.000 268.400 C 359.815 268.400,359.542 268.952,359.394 269.627 C 359.246 270.302,358.873 271.337,358.565 271.927 C 358.257 272.517,358.004 273.210,358.002 273.467 C 358.001 273.723,357.865 273.993,357.700 274.067 C 357.227 274.277,356.000 276.656,356.000 277.362 C 356.000 277.713,355.834 278.000,355.632 278.000 C 355.429 278.000,355.145 278.540,355.000 279.200 C 354.855 279.860,354.585 280.400,354.400 280.400 C 354.215 280.400,353.945 280.940,353.800 281.600 C 353.655 282.260,353.412 282.800,353.259 282.800 C 353.107 282.800,352.628 283.475,352.195 284.300 C 351.762 285.125,351.316 285.890,351.204 286.000 C 351.092 286.110,350.550 287.100,350.000 288.200 C 349.450 289.300,348.896 290.290,348.770 290.400 C 348.643 290.510,348.193 291.230,347.770 292.000 C 347.346 292.770,346.775 293.544,346.500 293.720 C 346.225 293.896,346.000 294.301,346.000 294.620 C 346.000 294.939,345.823 295.200,345.608 295.200 C 345.392 295.200,345.102 295.650,344.964 296.200 C 344.826 296.750,344.565 297.200,344.384 297.200 C 344.202 297.200,343.934 297.578,343.787 298.039 C 343.641 298.501,343.224 299.190,342.861 299.570 C 341.737 300.744,340.400 302.557,340.400 302.906 C 340.400 303.089,339.950 303.655,339.400 304.165 C 338.850 304.675,338.395 305.251,338.389 305.446 C 338.383 305.641,337.843 306.325,337.189 306.967 C 336.535 307.608,336.000 308.276,336.000 308.450 C 336.000 308.780,335.488 309.383,331.802 313.398 C 330.591 314.718,329.600 315.931,329.600 316.096 C 329.600 316.500,316.478 329.600,316.073 329.600 C 315.897 329.600,314.819 330.500,313.678 331.600 C 312.536 332.700,311.459 333.600,311.283 333.600 C 311.107 333.600,310.521 334.132,309.981 334.783 C 309.442 335.434,308.805 335.974,308.567 335.983 C 308.328 335.992,307.608 336.535,306.967 337.189 C 306.325 337.843,305.641 338.383,305.446 338.389 C 305.251 338.395,304.675 338.850,304.165 339.400 C 303.655 339.950,303.089 340.400,302.906 340.400 C 302.557 340.400,300.744 341.737,299.570 342.861 C 299.190 343.224,298.501 343.641,298.039 343.787 C 297.578 343.934,297.200 344.202,297.200 344.384 C 297.200 344.565,296.750 344.826,296.200 344.964 C 295.650 345.102,295.200 345.392,295.200 345.608 C 295.200 345.823,294.924 346.000,294.587 346.000 C 294.251 346.000,293.871 346.270,293.745 346.600 C 293.618 346.930,293.264 347.200,292.957 347.200 C 292.651 347.200,292.400 347.380,292.400 347.600 C 292.400 347.820,292.143 348.000,291.829 348.000 C 291.514 348.000,291.016 348.225,290.721 348.500 C 290.427 348.775,289.289 349.450,288.193 350.000 C 287.097 350.550,286.110 351.090,286.000 351.200 C 285.890 351.310,285.125 351.743,284.300 352.163 C 283.475 352.583,282.800 353.063,282.800 353.231 C 282.800 353.399,282.260 353.655,281.600 353.800 C 280.940 353.945,280.400 354.215,280.400 354.400 C 280.400 354.585,279.860 354.855,279.200 355.000 C 278.540 355.145,278.000 355.429,278.000 355.632 C 278.000 355.834,277.713 356.000,277.362 356.000 C 276.724 356.000,274.382 357.161,273.996 357.668 C 273.884 357.816,273.299 358.060,272.696 358.212 C 272.093 358.363,271.600 358.624,271.600 358.792 C 271.600 358.960,270.880 359.213,270.000 359.354 C 269.120 359.494,268.400 359.773,268.400 359.973 C 268.400 360.173,267.821 360.464,267.113 360.619 C 266.405 360.775,265.550 361.047,265.213 361.225 C 263.583 362.085,261.824 362.800,261.339 362.800 C 261.042 362.800,260.800 362.969,260.800 363.175 C 260.800 363.382,259.990 363.672,259.000 363.821 C 258.010 363.969,257.200 364.230,257.200 364.400 C 257.200 364.570,256.390 364.831,255.400 364.979 C 254.410 365.128,253.600 365.398,253.600 365.579 C 253.600 365.761,252.794 366.030,251.809 366.178 C 250.824 366.325,249.914 366.616,249.786 366.823 C 249.658 367.030,249.023 367.200,248.376 367.200 C 247.729 367.200,247.200 367.367,247.200 367.571 C 247.200 367.775,246.210 368.066,245.000 368.217 C 243.790 368.368,242.800 368.634,242.800 368.807 C 242.800 368.980,241.720 369.247,240.400 369.400 C 239.080 369.553,238.000 369.820,238.000 369.992 C 238.000 370.165,236.618 370.435,234.929 370.594 C 233.240 370.752,231.575 371.037,231.229 371.227 C 230.627 371.557,226.284 372.205,221.600 372.664 C 220.390 372.782,219.147 373.086,218.839 373.340 C 218.040 373.994,181.960 373.994,181.161 373.340 C 180.853 373.086,179.610 372.782,178.400 372.664 C 173.716 372.205,169.373 371.557,168.771 371.227 C 168.425 371.037,166.760 370.752,165.071 370.594 C 163.382 370.435,162.000 370.165,162.000 369.992 C 162.000 369.820,160.920 369.553,159.600 369.400 C 158.280 369.247,157.200 368.980,157.200 368.807 C 157.200 368.634,156.210 368.368,155.000 368.217 C 153.790 368.066,152.800 367.775,152.800 367.571 C 152.800 367.367,152.271 367.200,151.624 367.200 C 150.977 367.200,150.342 367.030,150.214 366.823 C 150.086 366.616,149.176 366.325,148.191 366.178 C 147.206 366.030,146.400 365.770,146.400 365.600 C 146.400 365.430,145.590 365.169,144.600 365.021 C 143.610 364.872,142.800 364.602,142.800 364.421 C 142.800 364.239,141.990 363.969,141.000 363.821 C 140.010 363.672,139.200 363.382,139.200 363.175 C 139.200 362.969,138.958 362.800,138.661 362.800 C 138.176 362.800,136.417 362.085,134.787 361.225 C 134.450 361.047,133.595 360.775,132.887 360.619 C 132.179 360.464,131.600 360.173,131.600 359.973 C 131.600 359.773,130.880 359.494,130.000 359.354 C 129.120 359.213,128.400 358.960,128.400 358.792 C 128.400 358.624,127.907 358.363,127.304 358.212 C 126.701 358.060,126.116 357.816,126.004 357.668 C 125.618 357.161,123.276 356.000,122.638 356.000 C 122.287 356.000,122.000 355.834,122.000 355.632 C 122.000 355.429,121.460 355.145,120.800 355.000 C 120.140 354.855,119.600 354.585,119.600 354.400 C 119.600 354.215,119.060 353.945,118.400 353.800 C 117.740 353.655,117.200 353.412,117.200 353.259 C 117.200 353.107,116.525 352.628,115.700 352.195 C 114.875 351.762,114.110 351.316,114.000 351.204 C 113.890 351.092,112.900 350.550,111.800 350.000 C 110.700 349.450,109.710 348.896,109.600 348.770 C 109.490 348.643,108.770 348.193,108.000 347.770 C 107.230 347.346,106.456 346.775,106.280 346.500 C 106.104 346.225,105.699 346.000,105.380 346.000 C 105.061 346.000,104.800 345.823,104.800 345.608 C 104.800 345.392,104.350 345.102,103.800 344.964 C 103.250 344.826,102.800 344.565,102.800 344.384 C 102.800 344.202,102.422 343.934,101.961 343.787 C 101.499 343.641,100.810 343.224,100.430 342.861 C 99.256 341.737,97.443 340.400,97.094 340.400 C 96.911 340.400,96.345 339.950,95.835 339.400 C 95.325 338.850,94.749 338.395,94.554 338.389 C 94.359 338.383,93.675 337.843,93.033 337.189 C 92.392 336.535,91.724 336.000,91.550 336.000 C 91.220 336.000,90.617 335.488,86.602 331.802 C 85.282 330.591,84.075 329.600,83.918 329.600 C 83.559 329.600,71.025 317.126,70.551 316.297 C 70.222 315.722,67.579 312.652,65.100 309.965 C 64.495 309.309,64.000 308.629,64.000 308.453 C 64.000 308.277,63.465 307.608,62.811 306.967 C 62.157 306.325,61.617 305.641,61.611 305.446 C 61.605 305.251,61.150 304.675,60.600 304.165 C 60.050 303.655,59.600 303.086,59.600 302.900 C 59.600 302.507,58.573 301.084,57.331 299.755 C 56.853 299.244,56.346 298.460,56.204 298.013 C 56.062 297.566,55.798 297.200,55.616 297.200 C 55.435 297.200,55.174 296.750,55.036 296.200 C 54.898 295.650,54.608 295.200,54.392 295.200 C 54.177 295.200,54.000 294.924,54.000 294.587 C 54.000 294.251,53.730 293.871,53.400 293.745 C 53.070 293.618,52.800 293.264,52.800 292.957 C 52.800 292.651,52.632 292.400,52.427 292.400 C 52.222 292.400,51.928 291.995,51.773 291.500 C 51.619 291.005,51.381 290.510,51.246 290.400 C 51.111 290.290,50.550 289.300,50.000 288.200 C 49.450 287.100,48.889 286.110,48.754 286.000 C 48.619 285.890,48.381 285.395,48.227 284.900 C 48.072 284.405,47.778 284.000,47.573 284.000 C 47.368 284.000,47.200 283.730,47.200 283.400 C 47.200 283.070,47.034 282.800,46.832 282.800 C 46.629 282.800,46.345 282.260,46.200 281.600 C 46.055 280.940,45.785 280.400,45.600 280.400 C 45.415 280.400,45.145 279.860,45.000 279.200 C 44.855 278.540,44.571 278.000,44.368 278.000 C 44.166 278.000,44.000 277.713,44.000 277.362 C 44.000 276.724,42.839 274.382,42.332 273.996 C 42.184 273.884,41.940 273.299,41.788 272.696 C 41.637 272.093,41.369 271.600,41.192 271.600 C 41.015 271.600,40.749 270.880,40.600 270.000 C 40.451 269.120,40.180 268.400,39.997 268.400 C 39.813 268.400,39.536 267.821,39.381 267.113 C 39.225 266.405,38.953 265.550,38.775 265.213 C 37.915 263.583,37.200 261.824,37.200 261.339 C 37.200 261.042,37.031 260.800,36.825 260.800 C 36.618 260.800,36.328 259.990,36.179 259.000 C 36.031 258.010,35.761 257.200,35.579 257.200 C 35.398 257.200,35.128 256.390,34.979 255.400 C 34.831 254.410,34.570 253.600,34.400 253.600 C 34.230 253.600,33.970 252.794,33.822 251.809 C 33.675 250.824,33.384 249.914,33.177 249.786 C 32.970 249.658,32.800 249.124,32.800 248.600 C 32.800 248.076,32.633 247.544,32.428 247.417 C 32.223 247.291,31.933 246.200,31.782 244.994 C 31.631 243.787,31.366 242.800,31.193 242.800 C 31.020 242.800,30.753 241.720,30.600 240.399 C 30.447 239.079,30.177 237.910,30.001 237.801 C 29.825 237.692,29.552 236.297,29.393 234.702 C 29.234 233.106,28.973 231.710,28.813 231.600 C 28.529 231.405,27.776 226.188,27.342 221.400 C 27.222 220.080,26.916 218.747,26.662 218.439 C 26.005 217.640,26.005 182.360,26.662 181.561 C 26.916 181.253,27.223 179.920,27.345 178.600 C 27.831 173.317,28.544 168.400,28.822 168.400 C 28.984 168.400,29.244 166.960,29.400 165.200 C 29.556 163.440,29.827 162.000,30.002 162.000 C 30.178 162.000,30.447 160.920,30.600 159.600 C 30.753 158.280,31.020 157.200,31.193 157.200 C 31.366 157.200,31.631 156.213,31.782 155.006 C 31.933 153.800,32.223 152.709,32.428 152.583 C 32.633 152.456,32.800 151.924,32.800 151.400 C 32.800 150.876,32.970 150.342,33.177 150.214 C 33.384 150.086,33.675 149.176,33.822 148.191 C 33.970 147.206,34.230 146.400,34.400 146.400 C 34.570 146.400,34.831 145.590,34.979 144.600 C 35.128 143.610,35.398 142.800,35.579 142.800 C 35.761 142.800,36.031 141.990,36.179 141.000 C 36.328 140.010,36.618 139.200,36.825 139.200 C 37.031 139.200,37.200 138.928,37.200 138.595 C 37.200 138.262,37.368 137.677,37.574 137.295 C 38.432 135.702,39.151 133.934,39.399 132.804 C 39.545 132.142,39.813 131.600,39.997 131.600 C 40.180 131.600,40.451 130.880,40.600 130.000 C 40.749 129.120,41.020 128.400,41.203 128.400 C 41.387 128.400,41.655 127.860,41.800 127.200 C 41.945 126.540,42.187 126.000,42.337 126.000 C 42.635 126.000,44.000 123.043,44.000 122.397 C 44.000 122.179,44.166 122.000,44.368 122.000 C 44.571 122.000,44.855 121.460,45.000 120.800 C 45.145 120.140,45.415 119.600,45.600 119.600 C 45.785 119.600,46.055 119.060,46.200 118.400 C 46.345 117.740,46.629 117.200,46.832 117.200 C 47.034 117.200,47.200 116.930,47.200 116.600 C 47.200 116.270,47.377 116.000,47.592 116.000 C 47.808 116.000,48.098 115.550,48.236 115.000 C 48.374 114.450,48.633 114.000,48.812 114.000 C 48.990 114.000,49.255 113.460,49.400 112.800 C 49.545 112.140,49.826 111.600,50.024 111.600 C 50.222 111.600,50.498 111.150,50.636 110.600 C 50.774 110.050,51.028 109.600,51.200 109.600 C 51.372 109.600,51.626 109.150,51.764 108.600 C 51.902 108.050,52.192 107.600,52.408 107.600 C 52.623 107.600,52.800 107.349,52.800 107.043 C 52.800 106.736,53.070 106.382,53.400 106.255 C 53.730 106.129,54.000 105.749,54.000 105.413 C 54.000 105.076,54.177 104.800,54.392 104.800 C 54.608 104.800,54.898 104.350,55.036 103.800 C 55.174 103.250,55.435 102.800,55.616 102.800 C 55.798 102.800,56.066 102.422,56.213 101.961 C 56.359 101.499,56.776 100.810,57.139 100.430 C 58.263 99.256,59.600 97.443,59.600 97.094 C 59.600 96.911,60.050 96.345,60.600 95.835 C 61.150 95.325,61.600 94.713,61.600 94.474 C 61.600 94.235,61.829 93.896,62.110 93.720 C 62.390 93.544,62.955 92.873,63.365 92.230 C 63.775 91.586,64.536 90.665,65.055 90.184 C 65.575 89.702,66.000 89.155,66.000 88.967 C 66.000 88.779,66.411 88.260,66.914 87.813 C 67.417 87.366,68.542 86.110,69.414 85.022 C 71.468 82.459,82.459 71.468,85.022 69.414 C 86.110 68.542,87.366 67.417,87.813 66.914 C 88.260 66.411,88.764 66.000,88.933 66.000 C 89.101 66.000,89.888 65.370,90.681 64.600 C 91.474 63.830,92.249 63.200,92.403 63.200 C 92.557 63.200,93.145 62.795,93.709 62.300 C 95.976 60.310,96.881 59.600,97.153 59.600 C 97.499 59.600,98.982 58.511,100.245 57.331 C 100.756 56.853,101.540 56.346,101.987 56.204 C 102.434 56.062,102.800 55.778,102.800 55.573 C 102.800 55.368,103.042 55.200,103.339 55.200 C 103.635 55.200,104.310 54.843,104.839 54.407 C 106.647 52.917,107.952 52.060,108.900 51.742 C 109.285 51.612,109.600 51.367,109.600 51.197 C 109.600 51.026,110.050 50.774,110.600 50.636 C 111.150 50.498,111.600 50.222,111.600 50.024 C 111.600 49.826,112.140 49.545,112.800 49.400 C 113.460 49.255,114.000 48.974,114.000 48.776 C 114.000 48.578,114.450 48.302,115.000 48.164 C 115.550 48.026,116.000 47.753,116.000 47.557 C 116.000 47.360,116.270 47.200,116.600 47.200 C 116.930 47.200,117.200 47.034,117.200 46.832 C 117.200 46.629,117.740 46.345,118.400 46.200 C 119.060 46.055,119.600 45.785,119.600 45.600 C 119.600 45.415,120.140 45.145,120.800 45.000 C 121.460 44.855,122.000 44.571,122.000 44.368 C 122.000 44.166,122.179 44.000,122.397 44.000 C 123.043 44.000,126.000 42.635,126.000 42.337 C 126.000 42.187,126.540 41.945,127.200 41.800 C 127.860 41.655,128.400 41.387,128.400 41.203 C 128.400 41.020,129.120 40.749,130.000 40.600 C 130.880 40.451,131.600 40.166,131.600 39.965 C 131.600 39.764,131.825 39.599,132.100 39.598 C 132.375 39.596,133.083 39.343,133.673 39.035 C 134.263 38.727,135.296 38.355,135.968 38.207 C 136.641 38.059,137.294 37.772,137.419 37.569 C 137.545 37.366,137.997 37.200,138.424 37.200 C 138.851 37.200,139.200 37.031,139.200 36.825 C 139.200 36.618,140.010 36.328,141.000 36.179 C 141.990 36.031,142.800 35.761,142.800 35.579 C 142.800 35.398,143.610 35.128,144.600 34.979 C 145.590 34.831,146.400 34.570,146.400 34.400 C 146.400 34.230,147.206 33.970,148.191 33.822 C 149.176 33.675,150.086 33.384,150.214 33.177 C 150.342 32.970,150.797 32.800,151.224 32.800 C 151.651 32.800,152.000 32.641,152.000 32.447 C 152.000 32.252,153.170 31.968,154.600 31.815 C 156.030 31.662,157.200 31.388,157.200 31.207 C 157.200 31.027,158.280 30.753,159.600 30.600 C 160.920 30.447,162.000 30.182,162.000 30.012 C 162.000 29.842,163.301 29.575,164.892 29.418 C 166.483 29.262,167.968 29.013,168.192 28.867 C 168.588 28.608,174.150 27.772,178.200 27.363 C 179.300 27.252,180.560 26.992,181.000 26.785 C 182.709 25.980,217.923 25.912,218.900 26.711 M117.953 73.866 C 117.597 73.961,116.994 74.616,116.614 75.321 C 115.711 76.999,115.796 264.799,116.700 265.100 C 116.975 265.192,117.200 265.445,117.200 265.662 C 117.200 266.189,118.233 267.200,118.771 267.200 C 119.007 267.200,119.200 267.380,119.200 267.600 C 119.200 268.524,187.129 268.105,188.438 267.173 C 189.077 266.718,189.600 266.088,189.600 265.773 C 189.600 265.458,189.780 265.200,190.000 265.200 C 190.259 265.200,190.400 260.133,190.400 250.800 C 190.400 241.467,190.259 236.400,190.000 236.400 C 189.780 236.400,189.600 236.113,189.600 235.763 C 189.600 235.412,189.240 235.031,188.800 234.916 C 188.360 234.801,188.000 234.553,188.000 234.366 C 188.000 234.178,180.391 233.974,171.090 233.912 L 154.180 233.800 152.990 232.696 L 151.800 231.591 151.800 153.669 L 151.800 75.747 150.642 74.674 L 149.483 73.600 134.042 73.646 C 125.549 73.672,118.309 73.771,117.953 73.866 M206.255 146.850 C 205.845 147.092,205.125 147.675,204.655 148.145 L 203.800 149.000 203.800 246.967 C 203.800 324.984,203.902 344.967,204.300 345.100 C 204.575 345.192,204.800 345.522,204.800 345.833 C 204.800 346.145,205.070 346.400,205.400 346.400 C 205.730 346.400,206.000 346.580,206.000 346.800 C 206.000 347.595,235.262 347.292,236.200 346.487 C 238.041 344.907,238.000 345.731,238.103 307.969 L 238.200 272.138 239.571 270.769 L 240.941 269.400 259.406 269.400 C 272.578 269.400,278.033 269.270,278.436 268.946 C 278.746 268.697,279.585 268.367,280.300 268.214 C 281.015 268.062,281.600 267.771,281.600 267.568 C 281.600 267.366,281.870 267.200,282.200 267.200 C 282.530 267.200,282.800 267.040,282.800 266.843 C 282.800 266.647,283.250 266.374,283.800 266.236 C 284.350 266.098,284.800 265.808,284.800 265.592 C 284.800 265.377,285.016 265.200,285.280 265.200 C 286.173 265.200,292.000 258.713,292.000 257.719 C 292.000 257.433,292.152 257.200,292.337 257.200 C 292.522 257.200,293.017 256.525,293.437 255.700 C 293.857 254.875,294.309 254.110,294.442 254.000 C 294.576 253.890,294.809 253.125,294.960 252.300 C 295.112 251.475,295.385 250.800,295.567 250.800 C 295.748 250.800,296.022 249.859,296.174 248.710 C 296.327 247.560,296.600 246.435,296.781 246.210 C 298.215 244.424,298.221 164.000,296.786 164.000 C 296.609 164.000,296.345 163.460,296.200 162.800 C 296.055 162.140,295.790 161.600,295.612 161.600 C 295.433 161.600,295.176 161.161,295.042 160.624 C 294.739 159.417,289.731 154.215,288.500 153.829 C 288.005 153.673,287.600 153.419,287.600 153.263 C 287.600 153.107,286.792 152.624,285.804 152.190 C 284.816 151.755,284.006 151.273,284.004 151.118 C 284.002 150.963,283.325 150.712,282.500 150.560 C 281.675 150.409,280.900 150.132,280.778 149.945 C 280.656 149.759,279.666 149.487,278.578 149.342 C 277.490 149.196,276.506 148.936,276.392 148.763 C 276.277 148.591,274.747 148.335,272.992 148.195 C 271.236 148.055,269.440 147.773,269.000 147.568 C 268.557 147.362,259.014 147.111,247.600 147.005 C 236.270 146.900,222.500 146.723,217.000 146.612 C 210.098 146.472,206.769 146.546,206.255 146.850 M261.603 185.066 C 262.262 185.652,262.800 186.462,262.800 186.866 C 262.800 187.270,262.980 187.600,263.200 187.600 C 263.462 187.600,263.600 195.059,263.600 209.176 C 263.600 223.129,263.459 230.840,263.200 231.000 C 262.980 231.136,262.800 231.567,262.800 231.957 C 262.800 232.348,262.262 233.148,261.603 233.734 L 260.407 234.800 250.803 234.800 C 237.079 234.800,238.400 237.504,238.400 209.400 C 238.400 181.283,237.055 184.057,250.703 184.024 L 260.407 184.000 261.603 185.066 " stroke="none" fill="#040404" fill-rule="evenodd"></path><path id="path1" d="" stroke="none" fill="#080404" fill-rule="evenodd"></path><path id="path2" d="" stroke="none" fill="#080404" fill-rule="evenodd"></path><path id="path3" d="" stroke="none" fill="#080404" fill-rule="evenodd"></path><path id="path4" d="" stroke="none" fill="#080404" fill-rule="evenodd"></path></g></svg>